<?xml version="1.0" encoding="UTF-8"?>
<svg version="1.1" xmlns="http://www.w3.org/2000/svg" width="577" height="433">
<path d="M0 0 C1.24758087 0.00077545 2.49516174 0.0015509 3.7805481 0.00234985 C17.68301219 0.02738163 31.57411938 0.2515921 45.46875 0.703125 C46.68767944 0.7413739 47.90660889 0.7796228 49.16247559 0.81903076 C50.29930786 0.85973694 51.43614014 0.90044312 52.60742188 0.94238281 C53.60318237 0.97744934 54.59894287 1.01251587 55.62487793 1.04864502 C58.63222419 1.25926013 61.53583503 1.70849234 64.5 2.25 C64.5 3.57 64.5 4.89 64.5 6.25 C46.12256027 6.84378855 27.76317375 7.3293723 9.375 7.25 C-10.9968639 7.18312281 -31.21111027 7.81571028 -51.5 9.6875 C-52.1737265 9.74894196 -52.847453 9.81038391 -53.54159546 9.87368774 C-60.81993238 10.54782503 -67.97661288 11.42244461 -75.15283203 12.81469727 C-78.23383248 13.38609562 -81.31994133 13.69442832 -84.4375 14 C-103.58761503 16.21284902 -122.26713059 21.02696876 -140.37988281 27.51416016 C-143.15991707 28.47904077 -145.97897527 29.27045175 -148.8125 30.0625 C-166.18706783 35.35825025 -182.68289057 43.41845671 -198.5 52.25 C-199.33595703 52.71132324 -200.17191406 53.17264648 -201.03320312 53.64794922 C-217.76557323 62.90088722 -234.01069459 72.94202994 -249.36499023 84.35595703 C-253.29556937 87.25 -253.29556937 87.25 -255.5 87.25 C-255.5 87.91 -255.5 88.57 -255.5 89.25 C-257.1796875 90.7578125 -257.1796875 90.7578125 -259.375 92.375 C-260.09429687 92.91382813 -260.81359375 93.45265625 -261.5546875 94.0078125 C-263.5 95.25 -263.5 95.25 -265.5 95.25 C-265.5 95.91 -265.5 96.57 -265.5 97.25 C-267.546875 99.125 -267.546875 99.125 -270.25 101.25 C-271.57257813 102.301875 -271.57257813 102.301875 -272.921875 103.375 C-275.5 105.25 -275.5 105.25 -277.765625 106.3125 C-279.85973686 107.18889192 -279.85973686 107.18889192 -280.5 110.25 C-282.2421875 112.0390625 -282.2421875 112.0390625 -284.375 113.875 C-285.07367188 114.48601562 -285.77234375 115.09703125 -286.4921875 115.7265625 C-288.5 117.25 -288.5 117.25 -291.5 118.25 C-291.78875 118.8275 -292.0775 119.405 -292.375 120 C-293.89987147 123.04974294 -295.98215822 124.97780132 -298.5 127.25 C-299.985 127.745 -299.985 127.745 -301.5 128.25 C-301.83 129.24 -302.16 130.23 -302.5 131.25 C-303.16 131.25 -303.82 131.25 -304.5 131.25 C-304.7578125 131.82234375 -305.015625 132.3946875 -305.28125 132.984375 C-306.61365942 135.46128995 -308.15056118 137.3841166 -310 139.5 C-310.6084375 140.20640625 -311.216875 140.9128125 -311.84375 141.640625 C-313.5 143.25 -313.5 143.25 -315.5 143.25 C-315.73847656 143.80945313 -315.97695313 144.36890625 -316.22265625 144.9453125 C-317.78591515 147.76587137 -319.71581151 149.78600635 -321.9375 152.125 C-327.28955562 157.88568375 -332.15104176 163.94897679 -336.92382812 170.19384766 C-338.02885041 171.63537456 -339.14007154 173.07216086 -340.25585938 174.50537109 C-349.15535674 185.93920898 -357.01519612 197.61964922 -364.26757812 210.15869141 C-365.84240088 212.83102336 -367.53499198 215.41590008 -369.25 218 C-377.11053275 230.23806914 -382.77599309 243.92124105 -388.5 257.25 C-388.90476562 258.18457031 -389.30953125 259.11914062 -389.7265625 260.08203125 C-390.66800693 262.33729479 -390.66800693 262.33729479 -390.5 265.25 C-388.70755859 264.50943359 -388.70755859 264.50943359 -386.87890625 263.75390625 C-385.2736752 263.10618144 -383.66819283 262.45907922 -382.0625 261.8125 C-380.8878418 261.32426758 -380.8878418 261.32426758 -379.68945312 260.82617188 C-374.42652435 258.72533199 -369.22910582 257.10736666 -363.5 257.25 C-360.9375 258.6875 -360.9375 258.6875 -359.5 260.25 C-359.98897818 264.65080363 -361.2082896 266.35315617 -364.5 269.25 C-366.40873555 270.44306655 -368.36062851 271.56853068 -370.33984375 272.640625 C-371.48646484 273.26839844 -372.63308594 273.89617187 -373.81445312 274.54296875 C-375.0218667 275.19580973 -376.22954987 275.84815233 -377.4375 276.5 C-379.78246634 277.77152744 -382.12402049 279.0489439 -384.46484375 280.328125 C-385.04535492 280.64245483 -385.62586609 280.95678467 -386.22396851 281.28063965 C-389.24736585 282.93585651 -392.18394365 284.66222937 -395.06689453 286.55273438 C-395.64443985 286.92775085 -396.22198517 287.30276733 -396.81703186 287.68914795 C-398.40933628 288.73477333 -399.98752138 289.80180917 -401.56469727 290.87011719 C-405.09632873 292.53033353 -406.80409835 292.34577812 -410.5 291.25 C-414.25324721 288.02468207 -414.42067098 283.34146522 -415.0625 278.6875 C-415.18544434 277.85919678 -415.30838867 277.03089355 -415.43505859 276.17749023 C-416.43054106 269.27092397 -417.19663802 262.34070215 -417.85375977 255.39428711 C-418.18607541 251.91789833 -418.63910266 248.6281053 -419.5 245.25 C-419.67002546 242.55459639 -419.58877822 239.95773562 -419.5 237.25 C-418.5 236.25 -418.5 236.25 -415.75 235.875 C-412.44303308 236.25657311 -410.96309003 236.79869549 -408.734375 239.2734375 C-405.86509565 243.86791646 -404.25430174 249.15132728 -402.5 254.25 C-402.21390869 253.6923999 -401.92781738 253.1347998 -401.63305664 252.56030273 C-395.62451485 240.88269156 -389.4868426 229.3733781 -382.5 218.25 C-382.13165039 217.6617041 -381.76330078 217.0734082 -381.38378906 216.46728516 C-376.64255198 208.92366032 -371.69209928 201.54545981 -366.578125 194.25 C-364.1941729 190.80850523 -361.92323591 187.30339716 -359.69140625 183.76171875 C-359.10166016 183.01341797 -359.10166016 183.01341797 -358.5 182.25 C-357.84 182.25 -357.18 182.25 -356.5 182.25 C-356.28472656 181.56164062 -356.06945312 180.87328125 -355.84765625 180.1640625 C-354.10523362 176.39638923 -351.68625379 173.70254802 -348.9375 170.625 C-347.8542342 169.39170828 -346.77221722 168.15731861 -345.69140625 166.921875 C-345.15402832 166.30892578 -344.61665039 165.69597656 -344.06298828 165.06445312 C-341.01118646 161.52165539 -338.13311638 157.83861313 -335.2421875 154.1640625 C-334.66726563 153.53242188 -334.09234375 152.90078125 -333.5 152.25 C-332.84 152.25 -332.18 152.25 -331.5 152.25 C-331.190625 151.63125 -330.88125 151.0125 -330.5625 150.375 C-329.875 149 -329.1875 147.625 -328.5 146.25 C-327.84 146.25 -327.18 146.25 -326.5 146.25 C-326.231875 145.6725 -325.96375 145.095 -325.6875 144.5 C-324.47070811 142.19449957 -323.19666121 140.22943808 -321.5 138.25 C-320.84 138.25 -320.18 138.25 -319.5 138.25 C-319.28174561 137.70649902 -319.06349121 137.16299805 -318.83862305 136.60302734 C-317.05230505 133.46304324 -314.63309051 131.11699795 -312.08203125 128.6015625 C-311.54656174 128.06655121 -311.01109222 127.53153992 -310.45939636 126.98031616 C-309.32612578 125.85006126 -308.19043111 124.7222324 -307.05249023 123.59667969 C-305.33070515 121.89301357 -303.61692049 120.18162028 -301.90429688 118.46875 C-286.63907529 103.25 -286.63907529 103.25 -283.5 103.25 C-283.17 102.26 -282.84 101.27 -282.5 100.25 C-280.78561252 98.68579853 -279.0043823 97.19387998 -277.1875 95.75 C-276.22199219 94.9765625 -275.25648438 94.203125 -274.26171875 93.40625 C-273.35035156 92.6946875 -272.43898438 91.983125 -271.5 91.25 C-270.39591797 90.36828125 -270.39591797 90.36828125 -269.26953125 89.46875 C-267.5 88.25 -267.5 88.25 -265.5 88.25 C-265.17 87.26 -264.84 86.27 -264.5 85.25 C-262.89624023 83.78295898 -262.89624023 83.78295898 -260.80859375 82.24609375 C-260.03636475 81.67503906 -259.26413574 81.10398437 -258.46850586 80.515625 C-257.63327393 79.91234375 -256.79804199 79.3090625 -255.9375 78.6875 C-255.08357666 78.06488281 -254.22965332 77.44226563 -253.34985352 76.80078125 C-245.62881172 71.22976696 -237.67222854 66.12796045 -229.5 61.25 C-228.54351562 60.67765625 -227.58703125 60.1053125 -226.6015625 59.515625 C-224.96924365 58.54125621 -223.3352608 57.56966672 -221.69921875 56.6015625 C-219.52891767 55.26777178 -217.45983203 53.83790277 -215.375 52.375 C-209.41998509 48.3524767 -202.93241875 45.36006432 -196.48291016 42.22607422 C-194.70962058 41.35318432 -192.95312911 40.44635938 -191.19921875 39.53515625 C-159.98073942 23.33509066 -125.39125502 11.89749284 -90.61376953 6.57666016 C-88.43577437 6.24007463 -86.26334715 5.87609603 -84.08984375 5.51171875 C-56.17408307 0.99704047 -28.23142928 -0.02918805 0 0 Z " fill="#4A4A4A" transform="translate(473.5,68.75)"/>
<path d="M0 0 C1 3 1 3 -0.47265625 6.0859375 C-3.40621593 10.88356913 -6.96184825 15.21524621 -10.4375 19.625 C-17.9076816 29.25778212 -24.40873058 39.26537671 -30.63818359 49.73193359 C-31.83271683 51.72139466 -33.05344994 53.68792226 -34.30078125 55.64453125 C-43.00403448 69.35004264 -49.60516866 84.10917844 -56 99 C-56.40476562 99.93457031 -56.80953125 100.86914062 -57.2265625 101.83203125 C-58.16800693 104.08729479 -58.16800693 104.08729479 -58 107 C-56.20755859 106.25943359 -56.20755859 106.25943359 -54.37890625 105.50390625 C-52.7736752 104.85618144 -51.16819283 104.20907922 -49.5625 103.5625 C-48.77939453 103.23701172 -47.99628906 102.91152344 -47.18945312 102.57617188 C-41.92652435 100.47533199 -36.72910582 98.85736666 -31 99 C-28.4375 100.4375 -28.4375 100.4375 -27 102 C-27.48897818 106.40080363 -28.7082896 108.10315617 -32 111 C-33.90873555 112.19306655 -35.86062851 113.31853068 -37.83984375 114.390625 C-39.55977539 115.33228516 -39.55977539 115.33228516 -41.31445312 116.29296875 C-42.5218667 116.94580973 -43.72954987 117.59815233 -44.9375 118.25 C-47.28246634 119.52152744 -49.62402049 120.7989439 -51.96484375 122.078125 C-52.8356105 122.54961975 -52.8356105 122.54961975 -53.72396851 123.03063965 C-56.74736585 124.68585651 -59.68394365 126.41222937 -62.56689453 128.30273438 C-63.14443985 128.67775085 -63.72198517 129.05276733 -64.31703186 129.43914795 C-65.90933628 130.48477333 -67.48752138 131.55180917 -69.06469727 132.62011719 C-72.59632873 134.28033353 -74.30409835 134.09577812 -78 133 C-81.75324721 129.77468207 -81.92067098 125.09146522 -82.5625 120.4375 C-82.68544434 119.60919678 -82.80838867 118.78089355 -82.93505859 117.92749023 C-83.93054106 111.02092397 -84.69663802 104.09070215 -85.35375977 97.14428711 C-85.68607541 93.66789833 -86.13910266 90.3781053 -87 87 C-87.17002546 84.30459639 -87.08877822 81.70773562 -87 79 C-86 78 -86 78 -83.25 77.625 C-79.94303308 78.00657311 -78.46309003 78.54869549 -76.234375 81.0234375 C-73.36509565 85.61791646 -71.75430174 90.90132728 -70 96 C-69.57086304 95.16359985 -69.57086304 95.16359985 -69.13305664 94.31030273 C-63.12451485 82.63269156 -56.9868426 71.1233781 -50 60 C-49.63165039 59.4117041 -49.26330078 58.8234082 -48.88378906 58.21728516 C-44.14255198 50.67366032 -39.19209928 43.29545981 -34.078125 36 C-31.6941729 32.55850523 -29.42323591 29.05339716 -27.19140625 25.51171875 C-26.79824219 25.01285156 -26.40507813 24.51398438 -26 24 C-25.34 24 -24.68 24 -24 24 C-23.78859375 23.319375 -23.5771875 22.63875 -23.359375 21.9375 C-21.56369536 18.05718077 -19.0524172 15.1988567 -16.25 12 C-15.73695312 11.39671875 -15.22390625 10.7934375 -14.6953125 10.171875 C-5.89442935 0 -5.89442935 0 0 0 Z " fill="#2A2A2A" transform="translate(141,227)"/>
<path d="M0 0 C1.24758087 0.00077545 2.49516174 0.0015509 3.7805481 0.00234985 C17.68301219 0.02738163 31.57411938 0.2515921 45.46875 0.703125 C46.68767944 0.7413739 47.90660889 0.7796228 49.16247559 0.81903076 C50.29930786 0.85973694 51.43614014 0.90044312 52.60742188 0.94238281 C53.60318237 0.97744934 54.59894287 1.01251587 55.62487793 1.04864502 C58.63222419 1.25926013 61.53583503 1.70849234 64.5 2.25 C64.5 3.57 64.5 4.89 64.5 6.25 C46.12256027 6.84378855 27.76317375 7.3293723 9.375 7.25 C-10.9968639 7.18312281 -31.21111027 7.81571028 -51.5 9.6875 C-52.1737265 9.74894196 -52.847453 9.81038391 -53.54159546 9.87368774 C-60.81993238 10.54782503 -67.97661288 11.42244461 -75.15283203 12.81469727 C-78.23383248 13.38609562 -81.31994133 13.69442832 -84.4375 14 C-92.302312 14.89129243 -100.01137976 16.48576736 -107.75 18.125 C-108.92167725 18.36959961 -110.09335449 18.61419922 -111.30053711 18.86621094 C-117.96249795 20.31003476 -124.34157227 22.07616171 -130.74804688 24.41162109 C-135.25130938 25.7835341 -139.81548703 26.06557036 -144.5 26.25 C-144.17 24.93 -143.84 23.61 -143.5 22.25 C-144.49 22.91 -145.48 23.57 -146.5 24.25 C-148.83199388 24.32905064 -151.16832622 24.33798769 -153.5 24.25 C-136.66114196 13.02409464 -110.39094929 9.60249894 -90.61376953 6.57666016 C-88.43577437 6.24007463 -86.26334715 5.87609603 -84.08984375 5.51171875 C-56.17408307 0.99704047 -28.23142928 -0.02918805 0 0 Z " fill="#5C5D5D" transform="translate(473.5,68.75)"/>
<path d="M0 0 C1.625 0.8125 1.625 0.8125 2.30078125 2.578125 C2.625 4.8125 2.625 4.8125 1.48046875 6.734375 C0.93003906 7.33765625 0.37960938 7.9409375 -0.1875 8.5625 C-1.00154297 9.48289063 -1.00154297 9.48289063 -1.83203125 10.421875 C-3.375 11.8125 -3.375 11.8125 -5.375 11.8125 C-5.705 12.8025 -6.035 13.7925 -6.375 14.8125 C-8.1171875 16.6015625 -8.1171875 16.6015625 -10.25 18.4375 C-10.94867188 19.04851562 -11.64734375 19.65953125 -12.3671875 20.2890625 C-14.375 21.8125 -14.375 21.8125 -17.375 22.8125 C-17.66375 23.39 -17.9525 23.9675 -18.25 24.5625 C-19.77487147 27.61224294 -21.85715822 29.54030132 -24.375 31.8125 C-25.365 32.1425 -26.355 32.4725 -27.375 32.8125 C-27.705 33.8025 -28.035 34.7925 -28.375 35.8125 C-29.035 35.8125 -29.695 35.8125 -30.375 35.8125 C-30.6328125 36.38484375 -30.890625 36.9571875 -31.15625 37.546875 C-32.48865942 40.02378995 -34.02556118 41.9466166 -35.875 44.0625 C-36.78765625 45.12210938 -36.78765625 45.12210938 -37.71875 46.203125 C-39.375 47.8125 -39.375 47.8125 -41.375 47.8125 C-41.60574219 48.36035156 -41.83648437 48.90820312 -42.07421875 49.47265625 C-43.74310072 52.47463914 -45.85607116 54.7298198 -48.1875 57.25 C-49.03957031 58.17683594 -49.89164063 59.10367188 -50.76953125 60.05859375 C-53.2618022 62.69285316 -55.79726521 65.26253255 -58.375 67.8125 C-58.705 66.8225 -59.035 65.8325 -59.375 64.8125 C-60.365 64.4825 -61.355 64.1525 -62.375 63.8125 C-64.56538423 65.18418238 -64.56538423 65.18418238 -66.375 66.8125 C-64.70098022 62.85572598 -62.24350715 59.96785787 -59.375 56.8125 C-58.715 56.8125 -58.055 56.8125 -57.375 56.8125 C-57.065625 56.19375 -56.75625 55.575 -56.4375 54.9375 C-55.75 53.5625 -55.0625 52.1875 -54.375 50.8125 C-53.715 50.8125 -53.055 50.8125 -52.375 50.8125 C-52.106875 50.235 -51.83875 49.6575 -51.5625 49.0625 C-50.34570811 46.75699957 -49.07166121 44.79193808 -47.375 42.8125 C-46.715 42.8125 -46.055 42.8125 -45.375 42.8125 C-45.04761841 41.99724854 -45.04761841 41.99724854 -44.71362305 41.16552734 C-42.92730505 38.02554324 -40.50809051 35.67949795 -37.95703125 33.1640625 C-37.42156174 32.62905121 -36.88609222 32.09403992 -36.33439636 31.54281616 C-35.20112578 30.41256126 -34.06543111 29.2847324 -32.92749023 28.15917969 C-31.20570515 26.45551357 -29.49192049 24.74412028 -27.77929688 23.03125 C-12.51407529 7.8125 -12.51407529 7.8125 -9.375 7.8125 C-9.045 6.8225 -8.715 5.8325 -8.375 4.8125 C-3.19514388 -0.2522482 -3.19514388 -0.2522482 0 0 Z " fill="#454545" transform="translate(199.375,164.1875)"/>
<path d="M0 0 C0.66 0 1.32 0 2 0 C2.66 0.99 3.32 1.98 4 3 C6.05925139 3.72382467 6.05925139 3.72382467 8 4 C7.37738281 4.1959375 6.75476563 4.391875 6.11328125 4.59375 C-0.86520942 6.85178324 -7.7142617 9.37630464 -14.5625 12 C-15.47604248 12.34861084 -16.38958496 12.69722168 -17.33081055 13.05639648 C-21.10285188 14.49785635 -24.86925588 15.94795623 -28.62109375 17.44140625 C-29.57113281 17.81136719 -30.52117187 18.18132812 -31.5 18.5625 C-32.2734375 18.87316406 -33.046875 19.18382813 -33.84375 19.50390625 C-36.49973549 20.11497538 -38.39050192 19.6937222 -41 19 C-41 18.34 -41 17.68 -41 17 C-40.45730469 16.74605469 -39.91460937 16.49210937 -39.35546875 16.23046875 C-38.64003906 15.88628906 -37.92460937 15.54210937 -37.1875 15.1875 C-36.47980469 14.85105469 -35.77210938 14.51460937 -35.04296875 14.16796875 C-32.98123812 13.1197487 -32.98123812 13.1197487 -31.62841797 11.55249023 C-28.63439268 8.69806643 -24.70812003 7.46232347 -20.9375 5.875 C-19.72416992 5.33552734 -19.72416992 5.33552734 -18.48632812 4.78515625 C-13.26011172 2.56847669 -8.60887947 1.49746632 -2.93579102 1.18017578 C-0.99443333 1.20727739 -0.99443333 1.20727739 0 0 Z " fill="#646464" transform="translate(328,91)"/>
<path d="M0 0 C19.36586547 -0.13306356 38.64887977 0.15178116 58 1 C58 1.66 58 2.32 58 3 C52.31152656 3.02506445 46.62308655 3.04302899 40.93457031 3.05493164 C39.00683023 3.05990335 37.0790938 3.06668307 35.15136719 3.07543945 C23.3868982 3.12746754 11.73176221 2.93177588 0 2 C0 1.34 0 0.68 0 0 Z " fill="#111313" transform="translate(481,71)"/>
<path d="M0 0 C0 0.33 0 0.66 0 1 C-30.99884699 2.134693 -61.98387202 2.11119422 -93 2 C-93 1.67 -93 1.34 -93 1 C-61.92505987 -0.55337422 -31.09465283 -1.26103185 0 0 Z " fill="#D1D3D3" transform="translate(538,74)"/>
<path d="M0 0 C-3.465 1.485 -3.465 1.485 -7 3 C-5.2365625 2.9690625 -5.2365625 2.9690625 -3.4375 2.9375 C0.47413467 2.93052739 4.14497944 3.35749657 8 4 C8 4.33 8 4.66 8 5 C0.57359158 6.60881575 -6.40501039 7.26442904 -14 7 C-13.34 5.68 -12.68 4.36 -12 3 C-15.96 3 -19.92 3 -24 3 C-19.91346535 0.95673268 -16.4497641 0.33244526 -12 -0.1875 C-11.2884375 -0.28224609 -10.576875 -0.37699219 -9.84375 -0.47460938 C-6.34611072 -0.90202612 -3.35108216 -1.23047548 0 0 Z " fill="#8F9191" transform="translate(399,75)"/>
<path d="M0 0 C-1.125 2.4375 -1.125 2.4375 -3 5 C-7.81102894 6.48912801 -12.99661676 6.10006766 -18 6 C-18 4.68 -18 3.36 -18 2 C-11.88019467 0.59545452 -6.28260706 -0.23268915 0 0 Z " fill="#0F1010" transform="translate(388,77)"/>
<path d="M0 0 C0.99 0.33 1.98 0.66 3 1 C0.02819057 2.89865603 -2.51460083 4.35455571 -6 5 C-5.34 5.33 -4.68 5.66 -4 6 C-4 6.66 -4 7.32 -4 8 C-2.35 7.67 -0.7 7.34 1 7 C-0.51042153 10.02084307 -2.89876211 10.68510653 -5.875 12.1875 C-6.94492187 12.73792969 -8.01484375 13.28835937 -9.1171875 13.85546875 C-12 15 -12 15 -15 14 C-13.68 13.67 -12.36 13.34 -11 13 C-11.33 12.01 -11.66 11.02 -12 10 C-11.34 10 -10.68 10 -10 10 C-10 9.34 -10 8.68 -10 8 C-11.65 8.33 -13.3 8.66 -15 9 C-12.69006748 5.53510122 -11.2576393 4.98682949 -7.5 3.375 C-6.5203125 2.94960937 -5.540625 2.52421875 -4.53125 2.0859375 C-3.6959375 1.72757812 -2.860625 1.36921875 -2 1 C-1.34 0.67 -0.68 0.34 0 0 Z " fill="#747474" transform="translate(293,103)"/>
<path d="M0 0 C0.66 0 1.32 0 2 0 C2.33 0.99 2.66 1.98 3 3 C2.34 3 1.68 3 1 3 C1 3.66 1 4.32 1 5 C-4.445 6.485 -4.445 6.485 -10 8 C-10.33 6.68 -10.66 5.36 -11 4 C-7.54941314 1.69960876 -5.05904498 1.5261725 -1 1 C-0.67 0.67 -0.34 0.34 0 0 Z " fill="#0B0C0B" transform="translate(328,91)"/>
<path d="M0 0 C1.21236328 0.01353516 1.21236328 0.01353516 2.44921875 0.02734375 C3.37154297 0.04474609 3.37154297 0.04474609 4.3125 0.0625 C3.9825 1.0525 3.6525 2.0425 3.3125 3.0625 C-1.07335329 3.76423653 -5.24540643 4.17084375 -9.6875 4.0625 C-6.9209694 -0.0872959 -4.6801992 -0.06782897 0 0 Z " fill="#040506" transform="translate(400.6875,74.9375)"/>
<path d="M0 0 C0 0.66 0 1.32 0 2 C-2.41696872 2.05411124 -4.83271787 2.09372278 -7.25 2.125 C-7.93191406 2.14175781 -8.61382812 2.15851563 -9.31640625 2.17578125 C-13.0608235 2.21213482 -15.82352727 2.07944349 -19 0 C-16.77156512 -0.19600577 -14.54220107 -0.38146569 -12.3125 -0.5625 C-10.45044922 -0.71912109 -10.45044922 -0.71912109 -8.55078125 -0.87890625 C-5.44164467 -0.98493841 -2.99189028 -0.77228525 0 0 Z " fill="#B8B9B9" transform="translate(501,74)"/>
<path d="M0 0 C0.66 0.33 1.32 0.66 2 1 C1.01 1 0.02 1 -1 1 C-0.67 0.67 -0.34 0.34 0 0 Z M-2 3 C-1.67 3.99 -1.34 4.98 -1 6 C-4 8 -4 8 -6.6875 7.625 C-7.450625 7.41875 -8.21375 7.2125 -9 7 C-9 6.34 -9 5.68 -9 5 C-6.35261084 3.5393715 -5.10551666 3 -2 3 Z " fill="#080808" transform="translate(296,103)"/>
<path d="M0 0 C0.66 0.99 1.32 1.98 2 3 C0.71034824 4.37562854 -0.62689293 5.70766393 -2 7 C-2.66 7 -3.32 7 -4 7 C-4 7.66 -4 8.32 -4 9 C-4.66 9 -5.32 9 -6 9 C-5 7 -4 5 -3 3 C-2.34 3 -1.68 3 -1 3 C-0.67 2.01 -0.34 1.02 0 0 Z " fill="#686868" transform="translate(148,212)"/>
<path d="M0 0 C-1.65848177 1.01351664 -3.32665961 2.01120795 -5 3 C-6.0209375 3.61875 -6.0209375 3.61875 -7.0625 4.25 C-9.46130339 5.17856905 -10.5831079 4.70346132 -13 4 C-11.40233897 3.13372601 -9.79660056 2.28233535 -8.1875 1.4375 C-7.29417969 0.96183594 -6.40085937 0.48617187 -5.48046875 -0.00390625 C-3 -1 -3 -1 0 0 Z " fill="#999999" transform="translate(296,104)"/>
<path d="M0 0 C0.99 0.33 1.98 0.66 3 1 C2.34 1 1.68 1 1 1 C1 1.66 1 2.32 1 3 C-3.15267176 6.11450382 -3.15267176 6.11450382 -6.3125 5.6875 C-6.869375 5.460625 -7.42625 5.23375 -8 5 C-7.236875 4.54625 -6.47375 4.0925 -5.6875 3.625 C-3.76367186 2.46175508 -1.87058776 1.2470585 0 0 Z " fill="#909090" transform="translate(269,115)"/>
<path d="M0 0 C1.33804687 0.04060547 1.33804687 0.04060547 2.703125 0.08203125 C3.37859375 0.11683594 4.0540625 0.15164062 4.75 0.1875 C4.75 0.5175 4.75 0.8475 4.75 1.1875 C2.77 1.5175 0.79 1.8475 -1.25 2.1875 C-1.25 2.5175 -1.25 2.8475 -1.25 3.1875 C-3.89 3.1875 -6.53 3.1875 -9.25 3.1875 C-6.10408067 0.38704377 -4.182936 -0.16511589 0 0 Z " fill="#1A1D1E" transform="translate(506.25,70.8125)"/>
<path d="M0 0 C0.66 0.33 1.32 0.66 2 1 C-1.07999946 4.67230705 -3.2482602 5.56802365 -8 6 C-5.54080489 3.3651481 -3.42227589 1.25483449 0 0 Z " fill="#B0B0B0" transform="translate(252,125)"/>
<path d="M0 0 C-2.39763185 2.39763185 -3.33273498 2.34280586 -6.625 2.625 C-7.44226563 2.69976562 -8.25953125 2.77453125 -9.1015625 2.8515625 C-9.72804688 2.90054687 -10.35453125 2.94953125 -11 3 C-4.33333333 -1.44444444 -4.33333333 -1.44444444 0 0 Z " fill="#A4A4A4" transform="translate(104,328)"/>
</svg>
